<svg xmlns="http://www.w3.org/2000/svg" width="135.813" height="16.8"><defs><style>.a{fill:#fff}</style></defs><path class="a" d="M8.166 2.257a6.139 6.139 0 0 1 4.581 1.837l1.04-1.04A7.5 7.5 0 0 0 8.122.797 7.881 7.881 0 1 0 8.1 16.553a7.533 7.533 0 0 0 5.687-2.279l-1.04-1.04a6.076 6.076 0 0 1-4.581 1.859 6.419 6.419 0 1 1 0-12.835zM20.512 4.691a7.39 7.39 0 0 0-4.735 1.571l.708 1.173a5.929 5.929 0 0 1 3.873-1.372c2.169 0 3.3 1.084 3.3 3.076v.708h-3.7c-3.342 0-4.492 1.5-4.492 3.3 0 2.014 1.615 3.386 4.248 3.386a4.371 4.371 0 0 0 4.006-1.925v1.814h1.5V9.208c.007-3.012-1.697-4.517-4.708-4.517zm3.142 8.232a3.724 3.724 0 0 1-3.7 2.368c-1.859 0-2.943-.841-2.943-2.191 0-1.195.73-2.08 2.987-2.08h3.651zM29.276 7.966c0-1.106.93-1.925 3.032-1.925a5.968 5.968 0 0 1 3.43 1l.686-1.261a7.888 7.888 0 0 0-4.116-1.084c-2.965 0-4.6 1.416-4.6 3.319 0 4.6 7.546 2.213 7.546 5.245 0 1.151-.907 1.9-3.12 1.9a7.031 7.031 0 0 1-4.138-1.306l-.708 1.239a7.777 7.777 0 0 0 4.736 1.438c3.031 0 4.8-1.306 4.8-3.319-.006-4.471-7.548-2.104-7.548-5.246zM39.871 0a1.118 1.118 0 1 0 1.151 1.085A1.116 1.116 0 0 0 39.871 0zM39.073 4.78h1.571v11.64h-1.571zM49.976 4.691a4.892 4.892 0 0 0-4.426 2.235V4.779h-1.5v11.64h1.571v-6.107c0-2.656 1.571-4.2 4.072-4.2 2.213 0 3.5 1.261 3.5 3.718v6.594h1.571V9.675c-.009-3.346-1.956-4.984-4.788-4.984zM63.104 4.691a5.919 5.919 0 1 0 5.906 5.908 5.725 5.725 0 0 0-5.906-5.908zm0 10.445a4.542 4.542 0 1 1 4.315-4.537 4.262 4.262 0 0 1-4.315 4.537zM86.95 11.905 83.409.929H80.09l-3.651 10.892-3.5-10.887h-3.718l5.09 15.49h3.828l3.519-10.489 3.408 10.489h3.851L93.984.934h-3.43zM112.044 6.085V4.514h-3.3v11.905h3.452v-5.621c0-2.279 1.261-3.319 3.164-3.319.266 0 .487.022.775.044V4.336a4.8 4.8 0 0 0-4.091 1.749zM117.503 0h3.452v16.42h-3.452zM132.361 0v5.776a4.574 4.574 0 0 0-3.563-1.438 6.132 6.132 0 0 0 0 12.259 4.58 4.58 0 0 0 3.718-1.549v1.372h3.3V0zm-2.965 13.764a3.309 3.309 0 1 1 3.032-3.3 3.64 3.64 0 0 1-3.033 3.3zM100.38 4.337a6.231 6.231 0 1 0 6.231 6.231 6.231 6.231 0 0 0-6.231-6.231zm3.24 8.61a2.248 2.248 0 0 1-2.6.419l.593 1.349a.152.152 0 0 1-.138.212H99.29a.151.151 0 0 1-.136-.218l.591-1.343a2.249 2.249 0 0 1-2.6-.419c-1.933-1.933 1.115-4.565 2.4-5.908.29-.3.548-.574.731-.78a.15.15 0 0 1 .224 0c.184.206.442.476.731.78 1.274 1.344 4.322 3.976 2.389 5.908z"/></svg>