<svg xmlns="http://www.w3.org/2000/svg" width="16.945" height="16.152" viewBox="0 0 16.945 16.152"><defs><style>.a{fill:#f28b4f;}</style></defs><path class="a" d="M189.744,214.785a.577.577,0,0,0-.468-.392l-5.146-.75-2.308-4.661a.577.577,0,0,0-1.038,0l-2.308,4.661-5.146.75a.578.578,0,0,0-.494.65.584.584,0,0,0,.171.337l3.727,3.629-.866,5.129a.577.577,0,0,0,.824.606l4.616-2.418,4.616,2.418a.577.577,0,0,0,.836-.606l-.877-5.129,3.727-3.629A.578.578,0,0,0,189.744,214.785Z" transform="translate(-172.831 -208.656)"/></svg>